<?xml version="1.0" standalone="no"?>
<!DOCTYPE svg PUBLIC "-//W3C//DTD SVG 20010904//EN"
 "http://www.w3.org/TR/2001/REC-SVG-20010904/DTD/svg10.dtd">
<svg version="1.0" xmlns="http://www.w3.org/2000/svg"
 width="1500.000000pt" height="1500.000000pt" viewBox="0 0 1500.000000 1500.000000"
 preserveAspectRatio="xMidYMid meet">
<metadata>
Created by potrace 1.14, written by Peter Selinger 2001-2017
</metadata>
<g transform="translate(0.000000,1500.000000) scale(0.100000,-0.100000)"
fill="#000000" stroke="none">
<path d="M7259 12226 c-2 -2 -53 -7 -114 -11 -60 -3 -123 -8 -140 -10 -16 -1
-59 -6 -95 -9 -36 -4 -72 -9 -80 -11 -8 -2 -36 -7 -62 -10 -74 -8 -104 -13
-238 -40 -41 -8 -86 -17 -100 -19 -28 -6 -26 -5 -165 -41 -55 -14 -109 -28
-119 -30 -29 -7 -303 -94 -334 -107 -15 -6 -34 -12 -42 -14 -8 -2 -23 -7 -35
-13 -11 -5 -78 -33 -150 -62 -174 -70 -468 -217 -645 -325 -128 -77 -386 -247
-400 -263 -3 -3 -27 -22 -53 -41 -26 -19 -67 -52 -90 -72 -23 -21 -45 -38 -48
-38 -3 0 -17 -10 -31 -22 -14 -13 -51 -45 -83 -73 -182 -155 -415 -392 -570
-580 -28 -33 -53 -62 -56 -65 -16 -14 -195 -258 -257 -351 -265 -396 -480
-843 -617 -1279 -30 -96 -81 -280 -95 -345 -7 -27 -14 -59 -16 -70 -12 -49
-42 -204 -49 -255 -4 -25 -9 -52 -10 -61 -5 -23 -34 -253 -40 -314 -7 -67 -18
-281 -19 -380 l-1 -80 59 -1 c33 0 60 4 61 10 2 6 7 83 10 171 3 88 7 176 9
195 2 19 7 67 10 105 4 39 9 86 11 105 3 19 7 56 10 81 3 25 8 56 10 69 3 13
7 42 10 65 4 22 13 72 20 110 8 39 17 82 20 98 3 15 7 39 10 55 19 94 93 355
137 487 212 626 558 1218 991 1700 95 105 284 294 376 375 41 36 79 70 85 75
26 25 217 176 287 227 137 101 336 230 489 317 74 42 375 193 425 214 22 9 74
30 115 48 239 100 547 195 860 264 3 0 27 4 53 9 27 4 59 10 70 12 22 5 120
22 167 29 77 11 111 15 165 20 33 3 76 7 95 10 176 22 669 23 875 1 17 -2 62
-7 100 -11 39 -4 79 -9 90 -11 11 -2 47 -7 80 -10 33 -4 64 -8 68 -11 4 -3 24
-7 45 -9 20 -2 62 -9 92 -16 30 -6 62 -12 70 -14 36 -5 176 -36 190 -41 8 -3
25 -8 38 -10 42 -7 316 -91 427 -131 1011 -365 1865 -1041 2447 -1937 202
-312 370 -647 493 -986 22 -61 101 -307 111 -344 4 -16 8 -34 10 -40 9 -31 36
-132 39 -145 43 -204 44 -209 50 -245 18 -103 28 -164 40 -250 3 -20 10 -76
21 -177 9 -85 15 -194 18 -333 l3 -130 63 -2 63 -1 -7 186 c-3 103 -8 203 -10
222 -2 19 -7 71 -10 115 -4 44 -9 89 -11 100 -2 11 -7 40 -10 65 -3 25 -7 56
-9 70 -3 14 -7 43 -11 65 -3 22 -7 47 -10 55 -2 8 -6 31 -9 50 -3 19 -8 44
-10 55 -2 11 -11 54 -20 96 -9 42 -18 83 -21 90 -2 8 -7 28 -10 44 -8 38 -13
60 -15 60 -1 0 -3 7 -5 15 -19 97 -120 398 -200 599 -77 190 -273 584 -335
671 -11 15 -20 31 -20 34 0 4 -9 19 -19 34 -10 15 -56 83 -101 152 -80 120
-256 357 -321 430 -30 34 -116 132 -152 174 -58 67 -239 244 -352 347 -316
284 -718 556 -1120 755 -77 39 -158 77 -180 86 -22 9 -96 40 -165 68 -166 68
-447 162 -588 195 -9 3 -64 16 -122 30 -58 14 -121 28 -140 31 -19 3 -37 7
-40 9 -3 2 -24 6 -46 9 -22 4 -51 9 -64 11 -23 5 -98 16 -190 29 -73 10 -137
18 -190 22 -30 3 -71 7 -90 10 -42 5 -626 15 -631 10z"/>
<path d="M2569 6720 c-1 -23 -1 -84 0 -97 1 -10 994 -13 4931 -13 l4930 0 0
63 0 63 -4930 0 c-4431 0 -4930 -2 -4931 -16z"/>
<path d="M2794 6012 l-50 -3 0 -59 0 -60 75 -1 c98 0 9401 0 9421 0 12 1 15
15 16 61 0 54 -2 60 -20 61 -71 2 -9401 3 -9442 1z"/>
<path d="M2910 5375 l0 -55 4588 0 4588 0 -1 53 -1 52 -4587 3 -4587 2 0 -55z"/>
<path d="M3229 4768 c-1 -2 -2 -22 -3 -45 -1 -40 1 -43 24 -43 14 -1 1936 -2
4273 -3 l4247 -2 0 48 0 47 -4270 0 c-2348 0 -4271 -1 -4271 -2z"/>
<path d="M3683 4142 c-30 -3 -33 -6 -33 -38 l0 -34 3850 0 3850 0 0 35 c0 21
-5 35 -12 36 -42 2 -7629 3 -7655 1z"/>
<path d="M4240 3488 l0 -27 3255 0 c2023 0 3255 4 3256 10 1 5 2 17 3 27 1 16
-160 17 -3257 17 l-3257 0 0 -27z"/>
</g>
</svg>
